<mxfile host="app.diagrams.net" agent="Mozilla/5.0 (Windows NT 10.0; Win64; x64) AppleWebKit/537.36 (KHTML, like Gecko) Chrome/138.0.0.0 Safari/537.36 Edg/138.0.0.0" version="28.0.7">
  <diagram name="Page-1" id="s8J_oSgUtmWyhu8Ted5f">
    <mxGraphModel dx="1358" dy="877" grid="0" gridSize="10" guides="1" tooltips="1" connect="1" arrows="1" fold="1" page="1" pageScale="1" pageWidth="850" pageHeight="1100" math="0" shadow="0">
      <root>
        <mxCell id="0" />
        <mxCell id="1" parent="0" />
        <mxCell id="CkzjWgUmh7rQ7abJ-9B5-1" value="AI" style="ellipse;whiteSpace=wrap;html=1;aspect=fixed;" vertex="1" parent="1">
          <mxGeometry x="159" y="136" width="80" height="80" as="geometry" />
        </mxCell>
        <mxCell id="CkzjWgUmh7rQ7abJ-9B5-2" value="E2E" style="ellipse;whiteSpace=wrap;html=1;aspect=fixed;" vertex="1" parent="1">
          <mxGeometry x="596" y="136" width="80" height="80" as="geometry" />
        </mxCell>
        <mxCell id="CkzjWgUmh7rQ7abJ-9B5-3" value="INT" style="ellipse;whiteSpace=wrap;html=1;aspect=fixed;" vertex="1" parent="1">
          <mxGeometry x="377" y="556" width="80" height="80" as="geometry" />
        </mxCell>
        <mxCell id="CkzjWgUmh7rQ7abJ-9B5-4" value="A" style="endArrow=classic;html=1;rounded=0;entryX=0.084;entryY=0.375;entryDx=0;entryDy=0;entryPerimeter=0;" edge="1" parent="1" source="CkzjWgUmh7rQ7abJ-9B5-1" target="CkzjWgUmh7rQ7abJ-9B5-3">
          <mxGeometry relative="1" as="geometry">
            <mxPoint x="375" y="326" as="sourcePoint" />
            <mxPoint x="475" y="326" as="targetPoint" />
          </mxGeometry>
        </mxCell>
        <mxCell id="CkzjWgUmh7rQ7abJ-9B5-5" value="API to fetch Message Bundles&lt;div&gt;API to fetch Execution logs&lt;/div&gt;&lt;div&gt;Workflow/Flow Retry&lt;/div&gt;" style="edgeLabel;resizable=0;html=1;;align=center;verticalAlign=middle;" connectable="0" vertex="1" parent="CkzjWgUmh7rQ7abJ-9B5-4">
          <mxGeometry relative="1" as="geometry" />
        </mxCell>
        <mxCell id="CkzjWgUmh7rQ7abJ-9B5-6" value="" style="endArrow=classic;html=1;rounded=0;exitX=0.991;exitY=0.219;exitDx=0;exitDy=0;exitPerimeter=0;entryX=0.5;entryY=1;entryDx=0;entryDy=0;" edge="1" parent="1" source="CkzjWgUmh7rQ7abJ-9B5-3" target="CkzjWgUmh7rQ7abJ-9B5-2">
          <mxGeometry relative="1" as="geometry">
            <mxPoint x="375" y="326" as="sourcePoint" />
            <mxPoint x="475" y="326" as="targetPoint" />
          </mxGeometry>
        </mxCell>
        <mxCell id="CkzjWgUmh7rQ7abJ-9B5-7" value="Execution Errors&lt;div&gt;(Standard format)&lt;/div&gt;" style="edgeLabel;resizable=0;html=1;;align=center;verticalAlign=middle;" connectable="0" vertex="1" parent="CkzjWgUmh7rQ7abJ-9B5-6">
          <mxGeometry relative="1" as="geometry" />
        </mxCell>
        <mxCell id="CkzjWgUmh7rQ7abJ-9B5-8" value="" style="endArrow=classic;html=1;rounded=0;exitX=1;exitY=0.5;exitDx=0;exitDy=0;entryX=0;entryY=0.5;entryDx=0;entryDy=0;" edge="1" parent="1" source="CkzjWgUmh7rQ7abJ-9B5-1" target="CkzjWgUmh7rQ7abJ-9B5-2">
          <mxGeometry relative="1" as="geometry">
            <mxPoint x="375" y="326" as="sourcePoint" />
            <mxPoint x="475" y="326" as="targetPoint" />
          </mxGeometry>
        </mxCell>
        <mxCell id="CkzjWgUmh7rQ7abJ-9B5-9" value="Label" style="edgeLabel;resizable=0;html=1;;align=center;verticalAlign=middle;" connectable="0" vertex="1" parent="CkzjWgUmh7rQ7abJ-9B5-8">
          <mxGeometry relative="1" as="geometry" />
        </mxCell>
      </root>
    </mxGraphModel>
  </diagram>
</mxfile>
